<?xml version="1.0" encoding="UTF-8"?>
<svg xmlns="http://www.w3.org/2000/svg" xmlns:xlink="http://www.w3.org/1999/xlink" viewBox="0 0 585.18 585.18">
  <defs>
    <style>
      .cls-1 {
        fill: #f9a277;
      }

      .cls-1, .cls-2, .cls-3, .cls-4, .cls-5, .cls-6, .cls-7, .cls-8 {
        stroke-width: 0px;
      }

      .cls-2 {
        fill: #f0ede4;
      }

      .cls-3 {
        mix-blend-mode: darken;
      }

      .cls-3, .cls-6 {
        fill: #f55f14;
        opacity: .55;
      }

      .cls-9 {
        stroke: #90f3ff;
        stroke-width: 28px;
      }

      .cls-9, .cls-5, .cls-10 {
        fill: none;
      }

      .cls-9, .cls-10 {
        stroke-miterlimit: 10;
      }

      .cls-11 {
        isolation: isolate;
      }

      .cls-4 {
        fill: #fc9cc6;
      }

      .cls-12 {
        clip-path: url(#clippath);
      }

      .cls-10 {
        stroke: #8598ad;
        stroke-width: 8px;
      }

      .cls-7 {
        fill: #8598ad;
      }

      .cls-8 {
        fill: #393e41;
      }
    </style>
    <clipPath id="clippath">
      <circle class="cls-5" cx="292.99" cy="292.36" r="278.59"/>
    </clipPath>
  </defs>
  <g class="cls-11">
    <g id="Calque_2" data-name="Calque 2">
      <g id="logo">
        <g>
          <path class="cls-10" d="M524.82,308.05s.39-13.22-.88-28.03c-.76-8.87-2.12-18.28-4.5-25.78-1.6-5.04-3.66-9.22-6.33-11.75-13.25-12.56-26.33-35.79-26.33-35.79v-103.24s-8.46,5.57-19.87,12.89c-19.13,12.28-46.54,29.52-56.18,33.73-5.1,2.23-14.86,6.18-25.63,10.46-8.57,3.41-17.77,7.03-25.78,10.16-1.51.59-2.97,1.16-4.38,1.71-10.06,3.93-17.34,6.75-17.34,6.75l-5.29-6.75-43.89-56.06-16.98-21.69-19.81,21.69-38.39,42.03-18.98,20.78-6.79,2.67-41.54,16.35-6.24,2.45-24.65,53.6-11.85,25.78-5.03,10.94-32.58,45.11-9.31,12.89s7.03,5.12,17.03,12.89c18.94,14.7,48.55,38.9,61.69,56.05,3.86,5.05,6.32,9.49,6.63,12.89.38,4.16,6.14,8.54,15.11,12.89,8.13,3.94,18.9,7.85,30.75,11.55,8.26,2.58,17.03,5.06,25.78,7.37,34.99,9.25,69.65,15.86,69.65,15.86l76.19-34.78.23-.11,25.78-11.77,2.22-1.02,34.98-12.89,49.24-18.15,59.63-14.7,5.33-1.31-5.33-34.5-2.04-13.17-4.33-28.03Z"/>
          <g class="cls-12">
            <g>
              <g>
                <path class="cls-1" d="M313.86,599.04s-16.32-8.58-32.64,2.3c-16.32,10.88,28.52,16,46.9,13.44,18.39-2.56,36.59-7.71,40.66-9.15,4.82-1.71,6.79-14.45-5.95-26.05-4.02-3.66-48.97,11.72-48.97,19.46Z"/>
                <path class="cls-1" d="M348.27,137.05c-25.66-6.41-63.77-6.41-92.83,0-29.06,6.41-72.83,62.73-86.79,96.22-32.07,76.98,0,101.88,0,121.51s19.24,147.92,57.73,179.99c38.49,32.07,173.2,134.71,269.43,44.9,96.22-89.81,89.81-198.86,25.66-256.6-21.64-19.47-48.57-34.21-64.15-51.32-30.61-33.63-41.53-66.86-51.32-96.22-6.41-19.24-32.07-32.07-57.73-38.49Z"/>
                <path class="cls-3" d="M405.11,177.47c-3.33-5.73-1.43-13.59-4.57-11.42-3.9,2.7-13.79,9.49-13.79,28.73s44.97,65.09,51.32,64.15c10.42-1.54-3.28-10.67-6.41-26.7-2.58-13.17-26.55-54.77-26.55-54.77Z"/>
                <g>
                  <path class="cls-1" d="M389.97,178.75s19.24-25.66,32.07-25.66c32.07,0,19.24,76.98,12.83,89.81-6.41,12.83-44.9-32.07-44.9-64.15Z"/>
                  <path class="cls-4" d="M439.78,166.98s-1.89-11.77-16.23,0c0,0-26.69,45.57-10.89,63.95,15.8,18.38,24.42,19.17,24.42,12.76s14.03-56.41,2.7-76.71Z"/>
                </g>
                <path class="cls-1" d="M227.91,333.27s-49.64,30.75-59.26,21.51c-9.62-9.24-41.7,22.83-35.28,35.66,6.41,12.83,25.66,6.41,32.07,12.83,6.41,6.41,32.07,51.32,44.9,51.32s-6.41-76.98,0-76.98,35.13-18.11,17.56-44.34Z"/>
                <path class="cls-2" d="M322.61,169.12s-110.84,109.49-139.58,130.76c-40.03,29.62,4.17,164.58,10.93,183.7,6.77,19.12,45.26,108.93,192.8,134.59,57.73,6.41,41.7-143.39,32.07-186.03-9.62-42.64-77.09-63.37-76.98-121.88.11-58.51-6.41-128.3-6.41-134.71s-9.81-9.62-12.83-6.41Z"/>
                <path class="cls-3" d="M438.08,323.08c12.83,0,25.66,12.83,25.66,38.49s-6.41,89.81-32.07,96.22c-13.92,3.48-120.18-2.61-121.88-12.83-6.41-38.49,25.72-19.3,44.9-38.49,12.83-12.83,35.69-21.71,38.49-38.49,6.41-38.49,25.66-44.9,44.9-44.9Z"/>
                <path class="cls-1" d="M370.72,396.85s25.66-12.83,32.07-44.9c6.41-32.07,44.9-32.07,51.32-6.41,6.41,25.66.96,98.86-28.39,107.17-29.35,8.3-74.25,1.89-87.08,1.89s-51.32,6.41-44.9-19.24c6.41-25.66,19.24-19.24,38.49-19.24s38.49-19.24,38.49-19.24Z"/>
                <path class="cls-6" d="M299.52,132.35s23.09,17.53-34.64,30.64c-38.37,8.71-46.95,1.48-38.49-6.7s6.62-15.58,35.39-20.8c28.76-5.22,37.75-3.14,37.75-3.14Z"/>
                <path class="cls-1" d="M300.16,133.84s-19.24-12.83-25.66-25.66c-6.41-12.83-48.17,25.66-46.54,44.9,1.63,19.24,24.28,6.41,45.03,0,20.75-6.41,33.58-6.41,27.17-19.24Z"/>
                <path class="cls-4" d="M286.08,270.74c-.08-.06.07-.15,0-.23-1.69-1.88-30.27-34.03-11.59-34.03s40,2.04,39.24,17.06c-.72,14.27-26.81,17.87-27.66,17.2Z"/>
                <g>
                  <ellipse class="cls-8" cx="363.8" cy="252.75" rx="27.78" ry="24.56" transform="translate(4.57 511.95) rotate(-70.6)"/>
                  <ellipse class="cls-2" cx="368.82" cy="244.59" rx="11.34" ry="12.83" transform="translate(15.62 511.23) rotate(-70.6)"/>
                </g>
                <g>
                  <ellipse class="cls-8" cx="240.66" cy="223.99" rx="25.28" ry="22.34" transform="translate(-50.54 376.59) rotate(-70.6)"/>
                  <ellipse class="cls-2" cx="245.22" cy="216.56" rx="10.32" ry="11.67" transform="translate(-40.49 375.93) rotate(-70.6)"/>
                </g>
                <path class="cls-8" d="M296.2,294.59c-1.24,0-2.52-.15-3.81-.5-5.86-1.55-8.27-6.34-9.12-11.26-2.29,3.17-4.99,5.11-8.08,5.81-8.47,1.93-16.06-6.49-16.38-6.85-.92-1.03-.82-2.61.21-3.53,1.03-.92,2.61-.82,3.53.21.07.08,5.98,6.58,11.55,5.3,3.92-.9,7.23-5.72,9.59-13.94l4.84,1.23c-.03.16-3.38,15.95,5.14,18.2,9.17,2.43,17.98-9.51,18.07-9.63.81-1.11,2.37-1.36,3.49-.55,1.12.81,1.37,2.37.56,3.49-.39.54-8.84,12.03-19.58,12.03Z"/>
                <path class="cls-1" d="M562.28,450.67s6.6,9.74,37.88-8.74c31.28-18.49-30.88,72.32-56.81,62.64-25.93-9.68-11.82-49.53,18.94-53.9Z"/>
              </g>
              <g>
                <rect class="cls-5" x="35.55" y="116.75" width="149.81" height="57.49"/>
                <path class="cls-5" d="M535.78,342.1h2.09v-57.49h-7.43c-.78-9.09-2.17-18.75-4.61-26.44h12.04v-57.49h-45.53v-26.44h45.53v-57.49h-45.53v-13.22s-8.68,5.71-20.38,13.22h-83.91v45.32c-8.79,3.5-18.23,7.21-26.44,10.42v-55.74h-72.71l-17.41-22.24-20.32,22.24h-39.37v43.1l-19.47,21.31-6.97,2.74-42.61,16.77H35.55v57.49h75.54l-12.16,26.44h-63.38v57.49h24.8l-9.55,13.22s7.21,5.26,17.47,13.22h-32.72v57.49h95.99c3.96,5.17,6.48,9.73,6.8,13.22.39,4.27,6.29,8.76,15.5,13.22H35.55v57.49h149.81v-45.65c8.47,2.65,17.46,5.19,26.44,7.56v38.09h149.81v-57.49h-.24l.24-.11,26.44-12.07,2.28-1.04,35.87-13.22h111.66v-33.69l5.47-1.35-5.47-35.38-2.09-13.51ZM339.34,181.17l-5.42-6.92h23.21c-10.32,4.03-17.79,6.92-17.79,6.92Z"/>
                <rect class="cls-5" x="564.31" y="452.47" width="149.81" height="57.49"/>
                <rect class="cls-5" x="388.05" y="32.82" width="149.81" height="57.49"/>
                <rect class="cls-5" x="211.8" y="32.82" width="149.81" height="57.49"/>
                <rect class="cls-5" x="564.31" y="368.54" width="149.81" height="57.49"/>
                <path class="cls-5" d="M564.31,90.31h149.81v-15.68c0-23.06-18.76-41.81-41.81-41.81h-108v57.49Z"/>
                <rect class="cls-5" x="564.31" y="284.61" width="149.81" height="57.49"/>
                <rect class="cls-5" x="35.55" y="32.82" width="149.81" height="57.49"/>
                <rect class="cls-5" x="564.31" y="200.68" width="149.81" height="57.49"/>
                <rect class="cls-5" x="564.31" y="116.75" width="149.81" height="57.49"/>
                <rect class="cls-5" x="388.05" y="452.47" width="149.81" height="57.49"/>
                <rect class="cls-5" x="35.55" y="536.4" width="149.81" height="57.49"/>
                <rect class="cls-5" x="211.8" y="536.4" width="149.81" height="57.49"/>
                <path class="cls-5" d="M564.31,593.89h108c23.06,0,41.81-18.76,41.81-41.81v-15.68h-149.81v57.49Z"/>
                <rect class="cls-5" x="388.05" y="536.4" width="149.81" height="57.49"/>
                <path class="cls-5" d="M9.11,32.82h-108c-23.06,0-41.81,18.76-41.81,41.81v15.68H9.11v-57.49Z"/>
                <rect class="cls-5" x="-140.7" y="200.68" width="149.81" height="57.49"/>
                <rect class="cls-5" x="-140.7" y="284.61" width="149.81" height="57.49"/>
                <rect class="cls-5" x="-140.7" y="368.54" width="149.81" height="57.49"/>
                <rect class="cls-5" x="-140.7" y="116.75" width="149.81" height="57.49"/>
                <path class="cls-7" d="M672.3,1.57H-98.88c-37.63,0-68.25,30.6-68.25,68.23v477.46c0,37.63,30.62,68.23,68.25,68.23h771.19c37.63,0,68.25-30.6,68.25-68.23V69.8c0-37.63-30.62-68.23-68.25-68.23ZM388.05,27.99h149.82v57.5h-149.82V27.99ZM388.05,505.13v-57.48h149.82v57.48h-149.82ZM211.81,27.99h149.8v57.5h-149.8V27.99ZM35.55,27.99h149.82v57.5H35.55V27.99ZM35.55,111.93h149.82v57.48H35.55v-57.48ZM9.1,589.07h-107.99c-23.06,0-41.81-18.77-41.81-41.81v-15.69H9.1v57.5ZM9.1,505.13h-149.8v-57.48H9.1v57.48ZM9.1,421.21h-149.8v-57.5H9.1v57.5ZM9.1,337.27h-149.8v-57.48H9.1v57.48ZM9.1,253.35h-149.8v-57.5H9.1v57.5ZM9.1,169.4h-149.8v-57.48H9.1v57.48ZM9.1,85.48h-149.8v-15.69c0-23.04,18.75-41.81,41.81-41.81H9.1v57.5ZM185.37,589.07H35.55v-57.5h149.82v57.5ZM187.92,460.28c-.87-.27-1.71-.53-2.56-.8v45.65H35.55v-57.48h118.29c-9.2-4.48-15.12-8.95-15.51-13.22-.32-3.49-2.83-8.06-6.78-13.22H35.55v-57.5h32.72c-10.25-7.97-17.47-13.22-17.47-13.22l9.55-13.22h-24.8v-57.48h63.39l12.15-26.44H35.55v-57.5h107.21l42.61-16.76,6.96-2.74,1.32-1.44,18.15-19.89v-43.09h39.37l3.04-3.33.02-.02,17.26-18.88.43.55,16.97,21.69h72.71v55.74c8.22-3.22,17.65-6.94,26.44-10.44v-45.31h83.9c.8-.53,1.6-1.03,2.37-1.53,1.55-.98,3.04-1.94,4.43-2.85,3.52-2.26,6.53-4.22,8.84-5.73.09-.07.18-.11.27-.16.27-.21.55-.37.8-.53,1.8-1.19,3.01-1.99,3.47-2.28.09-.07.16-.09.18-.11l.02-.02v13.22h45.53v57.48h-45.53v26.44h45.53v57.5h-12.06c2.44,7.7,3.84,17.33,4.61,26.44h7.44v57.48h-2.1l2.1,13.52,5.46,35.37-5.46,1.35v33.7h-111.66l-8.2,3.01-27.68,10.21-2.28,1.03-26.44,12.08-.23.11h.23v57.48h-149.8v-38.09c-7.28-1.92-14.57-3.95-21.58-6.07-.78-.23-1.53-.46-2.28-.69h-.02ZM211.81,531.57h149.8v57.5h-149.8v-57.5ZM537.87,589.07h-149.82v-57.5h149.82v57.5ZM714.12,547.26c0,23.04-18.75,41.81-41.81,41.81h-107.99v-57.5h149.8v15.69ZM714.12,505.13h-149.8v-57.48h149.8v57.48ZM714.12,421.21h-149.8v-57.5h149.8v57.5ZM714.12,337.27h-149.8v-57.48h149.8v57.48ZM714.12,253.35h-149.8v-57.5h149.8v57.5ZM714.12,169.4h-149.8v-57.48h149.8v57.48ZM714.12,85.48h-149.8V27.99h107.99c23.06,0,41.81,18.77,41.81,41.81v15.69Z"/>
                <rect class="cls-5" x="-140.7" y="452.48" width="149.8" height="57.48"/>
                <path class="cls-5" d="M9.1,536.4v57.5h-107.99c-23.06,0-41.81-18.77-41.81-41.81v-15.69H9.1Z"/>
              </g>
            </g>
          </g>
          <circle class="cls-9" cx="292.59" cy="292.59" r="278.59"/>
        </g>
      </g>
    </g>
  </g>
</svg>