<svg xmlns="http://www.w3.org/2000/svg" version="1.1" xmlns:xlink="http://www.w3.org/1999/xlink" viewBox="0 0 700 700" style="overflow: hidden; display: block;" width="700" height="700"><defs></defs><g id="two-0" transform="matrix(1 0 0 1 0 0)" opacity="1"><path transform="matrix(1 0 0 1 350 350)" id="two-2" d="M 226.78425 66.589864 C 215.84536 104.918964 295.18398 142.397465 275.558416 177.090641 C 257.531539 208.95773 201.252176 198.79598 165.483914 190.978617 C 124.015534 181.915461 96.977661 134.964855 56.220633 123.106016 C 43.995965 119.549074 29.911367 119.303408 17.642047 122.703133 C 3.194868 126.706323 -6.951101 141.426841 -21.061993 146.489374 C -36.408584 151.995236 -54.786358 147.417124 -70.000363 153.279413 C -127.060644 175.265988 -162.25039 262.791032 -223.175811 257.558614 C -255.602183 254.773762 -278.476035 217.55137 -294.043418 188.970229 C -309.650167 160.316813 -321.539362 123.549474 -313.274253 91.98562 C -303.152555 53.331588 -236.072812 39.927715 -234.536422 0 C -233.158545 -35.808262 -315.355824 -56.000221 -298.602523 -87.677612 C -272.204605 -137.591187 -160.576553 -36.170016 -127.592897 -81.998976 C -104.064769 -114.690006 -191.081451 -161.962354 -170.168814 -196.38528 C -157.014819 -218.037212 -114.105812 -190.394487 -93.974129 -205.774639 C -60.995252 -230.969758 -87.461254 -316.704241 -46.319513 -322.159286 C -4.301846 -327.730473 0.63783 -248.986199 31.643754 -220.087148 C 46.946114 -205.824594 72.145266 -202.052067 84.598131 -185.244068 C 97.98879 -167.1703 85.390022 -132.700006 103.858133 -119.858676 C 129.016112 -102.365718 179.105851 -151.509727 196.490376 -126.276698 C 212.863509 -102.511671 147.736815 -73.144765 159.762775 -46.910584 C 183.291075 4.415522 315.269051 -55.734522 324.30305 -0.000001 C 330.538013 38.466096 237.478518 29.117901 226.78425 66.589864 Z " fill="hsl(32, 100%, 51%)" stroke="undefined" stroke-width="1" stroke-opacity="1" fill-opacity="1" visibility="visible" stroke-linecap="butt" stroke-linejoin="miter" stroke-miterlimit="4"></path></g></svg>